<svg width="177" height="30" viewBox="0 0 177 30" fill="none" xmlns="http://www.w3.org/2000/svg">
<path d="M48.3924 26.5371V4.62857H57.7508C60.5008 4.62857 62.6557 5.29714 64.2154 6.63428C65.7956 7.97143 66.5858 9.80228 66.5858 12.1269C66.5858 13.6491 66.2266 14.976 65.5083 16.1074C64.8106 17.2183 63.7947 18.0823 62.4607 18.6994C61.1473 19.296 59.5773 19.5943 57.7508 19.5943H54.4261V26.5371H48.3924ZM54.4261 14.7497H57.289C58.233 14.7497 58.9924 14.5337 59.567 14.1017C60.1416 13.6491 60.429 12.9909 60.429 12.1269C60.429 11.2629 60.1416 10.6046 59.567 10.152C59.0129 9.69943 58.2536 9.47314 57.289 9.47314H54.4261V14.7497Z" fill="#171717"/>
<path d="M78.2082 27.0309C75.9096 27.0309 73.9292 26.568 72.2669 25.6423C70.6045 24.7166 69.3321 23.4 68.4496 21.6926C67.5672 19.9851 67.1259 17.9589 67.1259 15.6137C67.1259 13.2686 67.5672 11.2423 68.4496 9.53486C69.3321 7.80686 70.6045 6.48 72.2669 5.55429C73.9292 4.608 75.9096 4.13486 78.2082 4.13486C80.5272 4.13486 82.5077 4.608 84.1495 5.55429C85.8118 6.48 87.0842 7.80686 87.9667 9.53486C88.8492 11.2423 89.2904 13.2686 89.2904 15.6137C89.2904 17.9589 88.8492 19.9851 87.9667 21.6926C87.0842 23.4 85.8118 24.7166 84.1495 25.6423C82.5077 26.568 80.5272 27.0309 78.2082 27.0309ZM78.2082 22.1863C79.2343 22.1863 80.1065 21.9291 80.8248 21.4149C81.5636 20.9006 82.128 20.16 82.5179 19.1931C82.9079 18.2057 83.1028 17.0126 83.1028 15.6137C83.1028 14.2149 82.9079 13.0217 82.5179 12.0343C82.128 11.0469 81.5636 10.296 80.8248 9.78171C80.1065 9.24686 79.2343 8.97943 78.2082 8.97943C77.182 8.97943 76.2996 9.24686 75.5607 9.78171C74.8424 10.296 74.2883 11.0469 73.8984 12.0343C73.5085 13.0217 73.3135 14.2149 73.3135 15.6137C73.3135 17.0126 73.5085 18.2057 73.8984 19.1931C74.2883 20.16 74.8424 20.9006 75.5607 21.4149C76.2996 21.9291 77.182 22.1863 78.2082 22.1863Z" fill="#171717"/>
<path d="M90.2274 26.5371V4.62857H96.261V25.272L92.8132 21.6926H105.773V26.5371H90.2274Z" fill="#171717"/>
<path d="M106.31 26.5371L114.19 4.62857H121.055L128.936 26.5371H122.779L121.548 22.9269H113.667L112.436 26.5371H106.31ZM115.268 18.2366H119.978L117.638 11.2937L115.268 18.2366Z" fill="#171717"/>
<path d="M130.138 26.5371V4.62857H140.574C142.216 4.62857 143.642 4.896 144.853 5.43086C146.084 5.96571 147.028 6.71657 147.685 7.68343C148.362 8.65029 148.701 9.792 148.701 11.1086C148.701 12.1371 148.506 13.0526 148.116 13.8549C147.726 14.6366 147.162 15.2846 146.423 15.7989C145.684 16.3131 144.792 16.6629 143.745 16.848L143.683 16.5394C145.223 16.5394 146.372 16.8686 147.131 17.5269C147.89 18.1646 148.311 19.1109 148.393 20.3657L148.886 26.5371H142.729L142.421 21.4149C142.38 20.6126 142.165 20.0263 141.775 19.656C141.385 19.2651 140.697 19.0697 139.712 19.0697H136.172V26.5371H130.138ZM136.172 14.2251H139.466C140.472 14.2251 141.231 14.0194 141.744 13.608C142.277 13.176 142.544 12.5794 142.544 11.8183C142.544 11.0366 142.277 10.4503 141.744 10.0594C141.231 9.66857 140.472 9.47314 139.466 9.47314H136.172V14.2251Z" fill="#171717"/>
<path d="M150.575 26.5371V4.62857H156.608V26.5371H150.575Z" fill="#171717"/>
<path d="M168.011 27.0309C166 27.0309 164.286 26.712 162.87 26.0743C161.454 25.4366 160.356 24.5314 159.576 23.3589C158.796 22.1863 158.355 20.7977 158.253 19.1931L164.255 18.9154C164.358 19.6354 164.563 20.2526 164.871 20.7669C165.179 21.2606 165.589 21.6411 166.102 21.9086C166.636 22.1554 167.293 22.2789 168.073 22.2789C168.688 22.2789 169.212 22.2171 169.643 22.0937C170.074 21.9497 170.402 21.7337 170.628 21.4457C170.853 21.1577 170.966 20.7977 170.966 20.3657C170.966 19.9749 170.864 19.6354 170.658 19.3474C170.474 19.0389 170.094 18.7714 169.519 18.5451C168.965 18.2983 168.134 18.0617 167.026 17.8354C165.035 17.424 163.424 16.9509 162.193 16.416C160.962 15.8606 160.059 15.1509 159.484 14.2869C158.93 13.4229 158.653 12.3223 158.653 10.9851C158.653 9.62743 159.002 8.43428 159.699 7.40571C160.397 6.37714 161.403 5.57486 162.716 4.99886C164.03 4.42286 165.61 4.13486 167.457 4.13486C169.407 4.13486 171.038 4.464 172.352 5.12229C173.665 5.78057 174.681 6.68571 175.399 7.83771C176.138 8.98971 176.579 10.3269 176.723 11.8491L170.782 12.096C170.741 11.4171 170.576 10.8411 170.289 10.368C170.002 9.89486 169.612 9.53486 169.119 9.288C168.647 9.02057 168.073 8.88686 167.395 8.88686C166.533 8.88686 165.866 9.06171 165.394 9.41143C164.922 9.76114 164.686 10.224 164.686 10.8C164.686 11.2526 164.799 11.6331 165.025 11.9417C165.271 12.2503 165.661 12.5074 166.195 12.7131C166.749 12.9189 167.498 13.104 168.442 13.2686C170.597 13.6389 172.3 14.1429 173.552 14.7806C174.804 15.4183 175.687 16.1794 176.2 17.064C176.733 17.9486 177 18.9669 177 20.1189C177 21.5383 176.641 22.7726 175.923 23.8217C175.225 24.8503 174.199 25.6423 172.844 26.1977C171.51 26.7531 169.899 27.0309 168.011 27.0309Z" fill="#171717"/>
<path d="M9.40622 0H30.784V21.4286H9.40622V0Z" fill="#171717"/>
<path d="M0 8.57143H21.3778V30H0V8.57143Z" fill="#171717"/>
</svg>
